<svg width="136" height="20" viewBox="0 0 136 20" fill="none" xmlns="http://www.w3.org/2000/svg">
<path d="M1.168 15V6.232H3.2V10.008H3.056C3.056 9.112 3.168 8.36533 3.392 7.768C3.616 7.17067 3.952 6.72267 4.4 6.424C4.848 6.11467 5.39733 5.96 6.048 5.96H6.16C6.82133 5.96 7.37067 6.11467 7.808 6.424C8.256 6.72267 8.592 7.17067 8.816 7.768C9.05067 8.36533 9.168 9.112 9.168 10.008H8.544C8.544 9.112 8.656 8.36533 8.88 7.768C9.11467 7.17067 9.456 6.72267 9.904 6.424C10.352 6.11467 10.9013 5.96 11.552 5.96H11.664C12.3253 5.96 12.88 6.11467 13.328 6.424C13.7867 6.72267 14.1333 7.17067 14.368 7.768C14.6027 8.36533 14.72 9.112 14.72 10.008V15H12.16V9.864C12.16 9.384 12.032 8.99467 11.776 8.696C11.5307 8.39733 11.1787 8.248 10.72 8.248C10.2613 8.248 9.89867 8.40267 9.632 8.712C9.36533 9.01067 9.232 9.41067 9.232 9.912V15H6.656V9.864C6.656 9.384 6.528 8.99467 6.272 8.696C6.02667 8.39733 5.68 8.248 5.232 8.248C4.76267 8.248 4.39467 8.40267 4.128 8.712C3.86133 9.01067 3.728 9.41067 3.728 9.912V15H1.168ZM17.3184 15V6.232H19.8784V15H17.3184ZM16.1504 8.12V6.232H19.8784V8.12H16.1504ZM18.3104 5.368C17.8304 5.368 17.473 5.24533 17.2384 5C17.0144 4.744 16.9024 4.424 16.9024 4.04C16.9024 3.64533 17.0144 3.32533 17.2384 3.08C17.473 2.824 17.8304 2.696 18.3104 2.696C18.7904 2.696 19.1424 2.824 19.3664 3.08C19.601 3.32533 19.7184 3.64533 19.7184 4.04C19.7184 4.424 19.601 4.744 19.3664 5C19.1424 5.24533 18.7904 5.368 18.3104 5.368ZM26.1821 15.304C25.4248 15.304 24.7635 15.1813 24.1981 14.936C23.6435 14.68 23.1795 14.3387 22.8061 13.912C22.4328 13.4853 22.1555 13.0053 21.9741 12.472C21.7928 11.928 21.7021 11.368 21.7021 10.792V10.488C21.7021 9.89067 21.7981 9.32 21.9901 8.776C22.1821 8.22133 22.4648 7.73067 22.8381 7.304C23.2115 6.87733 23.6755 6.54133 24.2301 6.296C24.7955 6.05067 25.4408 5.928 26.1661 5.928C26.9555 5.928 27.6541 6.08267 28.2621 6.392C28.8701 6.69067 29.3555 7.112 29.7181 7.656C30.0808 8.2 30.2835 8.824 30.3261 9.528H27.8141C27.7715 9.13333 27.6115 8.80267 27.3341 8.536C27.0675 8.25867 26.6781 8.12 26.1661 8.12C25.7395 8.12 25.3821 8.22667 25.0941 8.44C24.8168 8.65333 24.6088 8.94667 24.4701 9.32C24.3315 9.69333 24.2621 10.136 24.2621 10.648C24.2621 11.1173 24.3261 11.544 24.4541 11.928C24.5821 12.3013 24.7848 12.5947 25.0621 12.808C25.3501 13.0107 25.7235 13.112 26.1821 13.112C26.5235 13.112 26.8115 13.0533 27.0461 12.936C27.2915 12.808 27.4835 12.6373 27.6221 12.424C27.7715 12.2 27.8621 11.944 27.8941 11.656H30.3901C30.3581 12.3813 30.1555 13.0213 29.7821 13.576C29.4088 14.12 28.9128 14.5467 28.2941 14.856C27.6755 15.1547 26.9715 15.304 26.1821 15.304ZM32.0274 15V3.32H34.5874V10.056H34.2034C34.2034 9.17067 34.3154 8.424 34.5394 7.816C34.7634 7.208 35.094 6.74933 35.5314 6.44C35.9687 6.12 36.518 5.96 37.1794 5.96H37.2914C38.262 5.96 39.0034 6.30667 39.5154 7C40.0274 7.68267 40.2834 8.68533 40.2834 10.008V15H37.7234V9.848C37.7234 9.368 37.5794 8.984 37.2914 8.696C37.014 8.39733 36.646 8.248 36.1874 8.248C35.7074 8.248 35.318 8.40267 35.0194 8.712C34.7314 9.02133 34.5874 9.432 34.5874 9.944V15H32.0274ZM47.7609 15V12.408H47.3289V9.592C47.3289 9.144 47.2222 8.808 47.0089 8.584C46.7955 8.36 46.4542 8.248 45.9849 8.248C45.7502 8.248 45.4409 8.25333 45.0569 8.264C44.6729 8.27467 44.2782 8.29067 43.8729 8.312C43.4675 8.33333 43.0995 8.35467 42.7689 8.376V6.216C43.0142 6.19467 43.3022 6.17333 43.6329 6.152C43.9635 6.13067 44.3049 6.11467 44.6569 6.104C45.0089 6.09333 45.3395 6.088 45.6489 6.088C46.5449 6.088 47.2969 6.216 47.9049 6.472C48.5235 6.728 48.9929 7.11733 49.3129 7.64C49.6329 8.152 49.7929 8.81333 49.7929 9.624V15H47.7609ZM44.9609 15.224C44.3315 15.224 43.7769 15.112 43.2969 14.888C42.8275 14.664 42.4595 14.344 42.1929 13.928C41.9262 13.5013 41.7929 12.9947 41.7929 12.408C41.7929 11.768 41.9582 11.2453 42.2889 10.84C42.6195 10.424 43.0835 10.12 43.6809 9.928C44.2782 9.72533 44.9662 9.624 45.7449 9.624H47.6169V11.048H45.7289C45.2809 11.048 44.9342 11.16 44.6889 11.384C44.4542 11.5973 44.3369 11.8907 44.3369 12.264C44.3369 12.616 44.4542 12.904 44.6889 13.128C44.9342 13.3413 45.2809 13.448 45.7289 13.448C46.0169 13.448 46.2729 13.4 46.4969 13.304C46.7315 13.1973 46.9235 13.0213 47.0729 12.776C47.2222 12.5307 47.3075 12.1893 47.3289 11.752L47.9369 12.392C47.8835 13 47.7342 13.512 47.4889 13.928C47.2542 14.344 46.9235 14.664 46.4969 14.888C46.0809 15.112 45.5689 15.224 44.9609 15.224ZM52.0769 15V3.32H54.6529V15H52.0769ZM51.0369 5.208V3.32H54.6529V5.208H51.0369ZM60.4124 15V13.288L65.0684 7.704V7.96L64.8124 7.576L65.0204 7.672H60.3484V6.456H66.4284V8.168L61.7724 13.752V13.528L62.0604 13.928L61.8364 13.784H66.6844V15H60.4124ZM73.9369 15V12.44H73.6809V9.48C73.6809 8.89333 73.5262 8.45067 73.2169 8.152C72.9182 7.85333 72.4755 7.704 71.8889 7.704C71.5582 7.704 71.2169 7.70933 70.8649 7.72C70.5129 7.73067 70.1769 7.74133 69.8569 7.752C69.5369 7.76267 69.2595 7.77867 69.0249 7.8V6.456C69.2595 6.43467 69.5049 6.41867 69.7609 6.408C70.0275 6.38667 70.2995 6.376 70.5769 6.376C70.8542 6.36533 71.1209 6.36 71.3769 6.36C72.2515 6.36 72.9662 6.46667 73.5209 6.68C74.0755 6.88267 74.4862 7.21867 74.7529 7.688C75.0195 8.15733 75.1529 8.792 75.1529 9.592V15H73.9369ZM71.1369 15.224C70.4969 15.224 69.9422 15.1173 69.4729 14.904C69.0142 14.68 68.6569 14.36 68.4009 13.944C68.1555 13.528 68.0329 13.0267 68.0329 12.44C68.0329 11.832 68.1662 11.3253 68.4329 10.92C68.7102 10.5147 69.1102 10.2107 69.6329 10.008C70.1555 9.79467 70.7849 9.688 71.5209 9.688H73.8409V10.84H71.4569C70.8382 10.84 70.3635 10.9893 70.0329 11.288C69.7022 11.5867 69.5369 11.9707 69.5369 12.44C69.5369 12.9093 69.7022 13.288 70.0329 13.576C70.3635 13.864 70.8382 14.008 71.4569 14.008C71.8195 14.008 72.1662 13.944 72.4969 13.816C72.8275 13.6773 73.0995 13.4533 73.3129 13.144C73.5369 12.824 73.6595 12.3867 73.6809 11.832L74.0969 12.44C74.0435 13.048 73.8942 13.56 73.6489 13.976C73.4142 14.3813 73.0835 14.6907 72.6569 14.904C72.2409 15.1173 71.7342 15.224 71.1369 15.224ZM80.4368 15L82.1648 6.744H84.2448L86.2608 15H84.9488L82.9328 6.776H83.4448L81.7008 15H80.4368ZM79.6528 15V13.784H81.4288V15H79.6528ZM79.3008 15L76.8848 6.456H78.3568L80.7088 15H79.3008ZM85.2688 15V13.784H87.0448V15H85.2688ZM85.9888 15L88.0368 6.456H89.4288L87.3328 15H85.9888ZM96.6088 15V12.44H96.3528V9.48C96.3528 8.89333 96.1981 8.45067 95.8888 8.152C95.5901 7.85333 95.1474 7.704 94.5608 7.704C94.2301 7.704 93.8888 7.70933 93.5368 7.72C93.1848 7.73067 92.8488 7.74133 92.5288 7.752C92.2088 7.76267 91.9314 7.77867 91.6968 7.8V6.456C91.9314 6.43467 92.1768 6.41867 92.4328 6.408C92.6994 6.38667 92.9714 6.376 93.2488 6.376C93.5261 6.36533 93.7928 6.36 94.0488 6.36C94.9234 6.36 95.6381 6.46667 96.1928 6.68C96.7474 6.88267 97.1581 7.21867 97.4248 7.688C97.6914 8.15733 97.8248 8.792 97.8248 9.592V15H96.6088ZM93.8088 15.224C93.1688 15.224 92.6141 15.1173 92.1448 14.904C91.6861 14.68 91.3288 14.36 91.0728 13.944C90.8274 13.528 90.7048 13.0267 90.7048 12.44C90.7048 11.832 90.8381 11.3253 91.1048 10.92C91.3821 10.5147 91.7821 10.2107 92.3048 10.008C92.8274 9.79467 93.4568 9.688 94.1927 9.688H96.5128V10.84H94.1288C93.5101 10.84 93.0354 10.9893 92.7048 11.288C92.3741 11.5867 92.2088 11.9707 92.2088 12.44C92.2088 12.9093 92.3741 13.288 92.7048 13.576C93.0354 13.864 93.5101 14.008 94.1288 14.008C94.4914 14.008 94.8381 13.944 95.1688 13.816C95.4994 13.6773 95.7714 13.4533 95.9848 13.144C96.2088 12.824 96.3314 12.3867 96.3528 11.832L96.7688 12.44C96.7154 13.048 96.5661 13.56 96.3208 13.976C96.0861 14.3813 95.7554 14.6907 95.3288 14.904C94.9128 15.1173 94.4061 15.224 93.8088 15.224ZM104.212 15.288C103.604 15.288 103.044 15.176 102.532 14.952C102.02 14.728 101.572 14.4133 101.188 14.008C100.815 13.6027 100.521 13.1333 100.308 12.6C100.105 12.0667 100.004 11.4907 100.004 10.872V10.584C100.004 9.976 100.105 9.40533 100.308 8.872C100.511 8.33867 100.793 7.86933 101.156 7.464C101.529 7.05867 101.967 6.744 102.468 6.52C102.98 6.28533 103.545 6.168 104.164 6.168C104.815 6.168 105.407 6.30667 105.94 6.584C106.473 6.85067 106.911 7.272 107.252 7.848C107.593 8.424 107.785 9.17067 107.828 10.088L107.188 9.064V3.32H108.724V15H107.508V11.208H107.956C107.913 12.1787 107.711 12.968 107.348 13.576C106.985 14.1733 106.527 14.6107 105.972 14.888C105.428 15.1547 104.841 15.288 104.212 15.288ZM104.42 13.944C104.943 13.944 105.417 13.8267 105.844 13.592C106.271 13.3573 106.612 13.0213 106.868 12.584C107.124 12.136 107.252 11.6133 107.252 11.016V10.28C107.252 9.69333 107.119 9.19733 106.852 8.792C106.596 8.376 106.249 8.06133 105.812 7.848C105.385 7.624 104.916 7.512 104.404 7.512C103.839 7.512 103.337 7.64533 102.9 7.912C102.473 8.17867 102.137 8.552 101.892 9.032C101.657 9.512 101.54 10.0773 101.54 10.728C101.54 11.3787 101.663 11.9493 101.908 12.44C102.153 12.92 102.495 13.2933 102.932 13.56C103.369 13.816 103.865 13.944 104.42 13.944ZM111.131 15V13.288L115.787 7.704V7.96L115.531 7.576L115.739 7.672H111.067V6.456H117.147V8.168L112.491 13.752V13.528L112.779 13.928L112.555 13.784H117.403V15H111.131ZM125.376 15L122.16 11.016H120.752L124.672 6.456H126.288L122.736 10.568L122.848 9.752L127.152 15H125.376ZM119.488 15V3.32H121.024V15H119.488ZM129.076 15V6.456H130.612V15H129.076ZM127.764 7.672V6.456H130.612V7.672H127.764ZM129.508 5.08C129.166 5.08 128.91 4.98933 128.74 4.808C128.58 4.62667 128.5 4.39733 128.5 4.12C128.5 3.84267 128.58 3.61333 128.74 3.432C128.91 3.25067 129.166 3.16 129.508 3.16C129.849 3.16 130.1 3.25067 130.26 3.432C130.43 3.61333 130.516 3.84267 130.516 4.12C130.516 4.39733 130.43 4.62667 130.26 4.808C130.1 4.98933 129.849 5.08 129.508 5.08Z" fill="white"/>
<circle cx="134.5" cy="13.5" r="1.5" fill="#F13024"/>
</svg>
